<svg width="216" height="184" viewBox="0 0 216 184" xmlns="http://www.w3.org/2000/svg">
    <g fill-rule="nonzero" fill="none">
        <path d="M99.659 126.787H.677c-.376 0-.677-.279-.677-.627 0-.349.3-.627.677-.627h98.982c.376 0 .676.278.676.627 0 .348-.3.627-.676.627z" fill="#FFA9A9"/>
        <path d="M176.95 42.8a12.2 12.2 0 0 0-7.554-9.324 12.235 12.235 0 0 1 5.257 8.116l.045.257-12.556 107.032-.045.15a12.377 12.377 0 0 1-4.356 6.216c-2.133 1.599-4.656 2.459-7.33 2.459h-43.525a12.16 12.16 0 0 1-4.46-.845 12.065 12.065 0 0 0 6.743 2.052h43.526c2.673 0 5.196-.845 7.33-2.46a12.377 12.377 0 0 0 4.355-6.214l.045-.151L176.98 43.056l-.045-.257h.015z" fill="#45343C"/>
        <path d="M174.845 41.542A12.187 12.187 0 0 0 162.8 31.386h-43.584c-6.707 0-12.167 5.44-12.227 12.13L94.761 145.162v.106c0 6.75 5.49 12.25 12.227 12.25h43.584c2.677 0 5.203-.844 7.339-2.456a12.363 12.363 0 0 0 4.361-6.208l.046-.15L174.89 41.797l-.045-.256zm-15.73 105.535c-1.28 4.083-4.257 6.826-8.543 6.826h-43.584c-5.339 0-8.211-4.34-8.241-9.704l12.227-100.533v-.045c0-5.364 2.872-8.257 8.241-8.257H162.8c4.707 0 7.97 1.868 8.828 6.494l-12.498 105.204-.015.015z" fill="#45343C"/>
        <path d="M171.602 73.895h-.118c-.487-.061-.827-.521-.768-1.026l1.713-14.199a.89.89 0 0 1 .99-.796c.487.061.827.52.768 1.026l-1.713 14.198c-.06.46-.429.797-.872.797z" fill="#FFF"/>
        <path d="M160.955 32.311s-3.453-.1-3.558-.114c-.104-.014-30.375-.114-30.375-.114l-.21 1.172h.958c.433 0 .807.286.896.686l.718 3.088c.09.371.419.629.822.629h22.826a.831.831 0 0 0 .733-.415l1.988-3.502a.959.959 0 0 1 .837-.486h4.156l.209-.944z" fill="#45343C"/>
        <path d="M143.866 35.205h-11.113c-.198 0-.366-.154-.366-.335 0-.181.168-.334.366-.334h11.113c.199 0 .366.153.366.334 0 .181-.167.335-.366.335z" fill="#FFF"/>
        <circle fill="#FFF" cx="148.761" cy="34.522" r="1.742"/>
        <path d="M99.801 121.979s-5.495 4.486-8.478 10.018c-2.984 5.533-4.384 14.58-2.984 16.598 1.4 2.019 3.973 6.833 3.973 6.833s1.994-1.3 6.287-4.231c4.292-2.931 4.962-16.598 4.308-20.172-.655-3.574-3.106-9.031-3.106-9.031v-.015z" fill="#FBB"/>
        <path d="m93.8 153.338-.432-.12c3.491-12.083 5.625-22.295 6.52-31.24l.447.046c-.91 8.96-3.043 19.202-6.535 31.314z" fill="#FFA9A9"/>
        <path d="M95.782 143.582c-1.628-2.663-3.614-5.372-5.898-8.05l.328-.313c2.3 2.694 4.3 5.419 5.943 8.112l-.373.25zM98.02 134.54l4.975-3.278-4.974 3.278zM98.63 128.947l-2.475-3.159.297-.325 2.49 3.175z" fill="#FFA9A9"/>
        <path d="M95.007 154.732c0-.106-.166-10.519-4.98-16.929-4.89-6.53-5.717-14.31-5.717-14.385l.451-.046c0 .076.812 7.735 5.627 14.16 4.905 6.53 5.07 17.08 5.07 17.184h-.451v.016z" fill="#FFA9A9"/>
        <path d="M82.972 120.993s-.347-2.599.694-4.227c1.04-1.628 3.769-2.27 4.81-1.299 1.04.97.851 2.987 0 4.182-.852 1.195-3.77 2.33-3.77 2.33l-1.719-.971-.015-.015z" fill="#FFDEDE"/>
        <path d="M83.276 122.378s-2.376 1.275-4.292.937c-1.917-.338-3.495-2.596-2.913-3.887.583-1.29 2.56-1.874 4-1.536 1.442.338 3.542 2.581 3.542 2.581l-.337 1.92v-.015zM84.287 121.702s2.617-.823 4.481-.165c1.865.659 3.056 3.082 2.257 4.22-.8 1.137-2.915 1.376-4.294.793-1.379-.584-3.118-3.068-3.118-3.068l.674-1.78z" fill="#FFDEDE"/>
        <path d="M84.012 122.316s1.275 2.376.937 4.293c-.338 1.916-2.596 3.495-3.886 2.913-1.29-.583-1.874-2.56-1.536-4.002.338-1.44 2.58-3.541 2.58-3.541l1.92.337h-.015z" fill="#FFDEDE"/>
        <circle fill="#FFF" cx="83.265" cy="122.327" r="2.439"/>
        <path d="M100.098 154.298s5.16-3.422 8.928-8.798c3.769-5.375 3.11-10.978 3.11-10.978s-7.492 1.318-11.395 4.937c-3.903 3.619-9.107 11.856-10.094 15.823-.987 3.968 9.436-.984 9.436-.984h.015z" fill="#FFDEDE"/>
        <path fill="#FFA9A9" d="m95.303 153.732 17.066-18.711-17.066 18.711z"/>
        <path d="m98.812 150.55-.436-.08c.61-3.603-1.51-5.81-1.524-5.842l.304-.35c.102.096 2.309 2.398 1.67 6.272h-.014zM102.69 146.37l-.264-.318s3.762-2.422 6.968 0l-.279.304c-2.956-2.236-6.294-.08-6.426 0v.013zM107.535 140.097l-.39-.182s.906-2.296-.418-3.664l.293-.335c1.533 1.597.557 4.075.515 4.181zM96.34 153.252l-.185-.39c.2-.084 4.814-1.854 6.968.041l-.323.307c-1.938-1.7-6.414.028-6.46.042z" fill="#FFA9A9"/>
        <path d="M95.458 154.036s-1.996-7.8-6.964-13.657-13.928-5.857-13.928-5.857-.335 6.171 2.652 11.7c2.986 5.528 6.765 9.308 11.276 10.399 4.51 1.09 6.964-2.6 6.964-2.6v.015z" fill="#FFDEDE"/>
        <path d="M90.876 154.732c-3.541-6.653-8.882-13.156-16.321-19.882l.297-.328c7.484 6.771 12.855 13.32 16.425 20.001l-.401.209z" fill="#FFA9A9"/>
        <path d="M89.035 151.119s-4.704-1.59-8.723 0l-.183-.39c4.171-1.645 8.86-.07 9.058 0l-.167.39h.015zM84.788 145.672c-.052-.211-1.385-5.341.64-7.665l.275.317c-1.856 2.127-.562 7.152-.549 7.197l-.379.136.013.015zM79.224 139.155s-2.638-1.101-4.381-.014l-.288-.335c1.967-1.24 4.765-.07 4.877-.014l-.208.377v-.014zM89.896 153.338c0-.246-.27-6.01 1.777-7.666l.301.353c-1.856 1.518-1.602 7.236-1.602 7.297h-.476v.016zM82.764 154.732h22.612a.52.52 0 0 1 .52.638l-2.84 15.061a2.978 2.978 0 0 1-2.931 2.42H88a2.993 2.993 0 0 1-2.93-2.42l-2.842-15.061a.542.542 0 0 1 .52-.638h.016z" fill="#FFA9A9"/>
        <rect fill="#45343C" x="111.484" y="106.648" width="100.335" height="23.694" rx="7.96"/>
        <ellipse fill="#FFF" cx="127.858" cy="118.146" rx="3.135" ry="3.136"/>
        <ellipse fill="#FFDEDE" cx="200.323" cy="114.662" rx="15.677" ry="15.68"/>
        <path d="M206.245 116.404h-1.787V111.3c0-2.32-1.848-4.221-4.135-4.221-2.288 0-4.136 1.886-4.136 4.221v5.104H194.4V111.3c0-3.34 2.65-6.046 5.923-6.046 3.271 0 5.922 2.722 5.922 6.046v5.104z" fill="#A01823"/>
        <path d="M207.403 112.223h-14.16a.234.234 0 0 0-.237.238v10.673c0 .134.104.238.236.238h14.16a.234.234 0 0 0 .237-.238v-10.673a.234.234 0 0 0-.236-.238zm-6.431 6.052v1.088a.658.658 0 0 1-.65.656.658.658 0 0 1-.648-.656v-1.088a1.806 1.806 0 0 1-1.136-1.685c0-.999.796-1.804 1.785-1.804.988 0 1.784.805 1.784 1.804 0 .76-.472 1.416-1.135 1.685z" fill="#C1272D"/>
        <path fill="#FFF" d="m145.918 115.64-1.855 2.493v.046l2.956-.4v1.354l-2.956-.354v.046l1.87 2.4-1.236.723-1.177-2.784h-.045l-1.267 2.815-1.116-.723 1.855-2.43v-.047l-2.895.385v-1.354l2.88.384v-.046l-1.84-2.43 1.192-.693 1.206 2.77h.045l1.192-2.785 1.176.677zM161.944 115.64l-1.855 2.493v.046l2.956-.4v1.354l-2.956-.354v.046l1.87 2.4-1.236.723-1.177-2.784h-.045l-1.267 2.815-1.116-.723 1.855-2.43v-.047l-2.896.385v-1.354l2.881.384v-.046l-1.84-2.43 1.192-.693 1.206 2.77h.045l1.192-2.785 1.176.677zM177.97 115.64l-1.855 2.493v.046l2.956-.4v1.354l-2.956-.354v.046l1.87 2.4-1.237.723-1.176-2.784h-.045l-1.267 2.815-1.116-.723 1.855-2.43v-.047l-2.896.385v-1.354l2.88.384v-.046l-1.84-2.43 1.192-.693 1.207 2.77h.045l1.192-2.785 1.176.677z"/>
        <path d="M149.774 93.794c-.907-1.185-1.427-2.673-1.502-4.526v-2.673c0-1.23-.98-2.247-2.2-2.247h-14.969c-1.204 0-2.2 1.002-2.2 2.247v4.161c0 1.23.981 2.248 2.2 2.248H146.206c1.279.243 2.393.607 3.345 1.078.163.091.327-.121.223-.273v-.015z" fill="#C1272D"/>
        <circle fill="#FFA9A9" cx="154.684" cy="90.62" r="3.484"/>
        <path d="M124.058 68.706c.907-1.184 1.428-2.672 1.502-4.525v-2.673c0-1.23.98-2.247 2.2-2.247h14.969c1.204 0 2.2 1.002 2.2 2.247v4.161c0 1.23-.981 2.248-2.2 2.248H127.626c-1.278.243-2.393.607-3.345 1.078-.163.09-.327-.122-.223-.274v-.015z" fill="#C1272D"/>
        <circle fill="#FFA9A9" cx="119.148" cy="66.229" r="3.484"/>
        <ellipse fill="#FFDEDE" cx="39.716" cy="175.289" rx="36.929" ry="8.711"/>
        <path d="M66.093 32.821c-.535-.293-1.33-.802-2.277-1.435l-5.287 9.6a29.115 29.115 0 0 0 4.951 2.223c2.277.756 4.6 1.08 6.235.154 1.39-.88 2.506-2.886 2.735-4.707.23-1.822-2.292-5.51-6.357-5.85v.015z" fill="#F4A48B"/>
        <path d="M26.477 65.532s2.356-9.059 16.201-9.059 15.851 9.06 15.851 9.06H26.477z" fill="#CE2921"/>
        <path d="m35.211 156.531-13.611-.406c0 2.692.412 8.318.604 10.258l13.331.195c0-1.203-.456-8.843-.324-10.047zM14.446 39.022c-3.114 4.646-5.584 8.98-6.781 12.72 1.137 4.587 3.967 5.032 8.039 2.494 3.249-3.74 5.54-6.456 6.512-8.49C23.19 43.713 15 38.355 15 38.355l-.554.667z" fill="#F4A48B"/>
        <ellipse fill="#59161E" cx="29.961" cy="11.177" rx="8.361" ry="8.362"/>
        <path d="M31.841 23.009c0-.19-2.576-4.673-2.576-4.673l1.62-.888 1.167 2.693-.195 2.882-.016-.014z" fill="#512929"/>
        <path fill="#F4A48B" d="m32.185 23.867 9.569-1.48 2.673 17.293-9.569 1.48z"/>
        <path d="M37.36 1.31c4.666-.722 9.052 2.476 9.776 7.157l1.283 8.304a6.28 6.28 0 0 1-5.241 7.16L32.46 25.59l-2.243-14.505c-.721-4.666 2.477-9.053 7.157-9.777l-.015.002z" fill="#F4A48B"/>
        <path d="m48.71 16.848-.287-1.49c-.084 0-.185 0-.287.014-.928.124-1.57.827-1.434 1.586.152.759 1.013 1.283 1.958 1.173.033 0 .067 0 .101-.014.034-.414 0-.842-.068-1.27h.017z" fill="#FF8286"/>
        <path d="M37.306.147c-5.632.876-9.496 6.194-8.612 11.874l.284 1.813c1.678.197 3.325.227 5.692-.317 1.018-.227 3.43-.997 5.093-1.783 1.662-.785 5.99-4.29 5.99-4.29l1.499 3.112c1.033-6.602-4.314-11.3-9.946-10.424v.015z" fill="#68151B"/>
        <path d="m31.932 11.851 3.131 2.02-3.531 5.476-3.131-2.02a3.264 3.264 0 0 1-.972-4.504 3.263 3.263 0 0 1 4.503-.972z" fill="#F4A48B"/>
        <path d="M31.68 16.055s-.136-.017-.204-.067l-2.044-1.362c-.17-.118-.222-.336-.103-.504a.382.382 0 0 1 .511-.101l2.044 1.361c.17.118.222.337.103.505a.382.382 0 0 1-.307.168zM38.65 13.746a.326.326 0 0 1-.285-.153.284.284 0 0 1 .12-.404c.733-.39 1.527-.502 2.365-.349.18.028.285.196.255.363-.03.167-.21.265-.39.237-.688-.126-1.302-.042-1.916.279a.319.319 0 0 1-.165.041l.015-.014zM44.92 12.367a.326.326 0 0 1-.284-.154c-.09-.14-.03-.334.12-.418a3.563 3.563 0 0 1 2.365-.348c.18.028.285.195.255.362-.03.167-.21.265-.39.237-.688-.125-1.302-.042-1.916.279a.319.319 0 0 1-.165.042h.015z" fill="#30242A"/>
        <path d="M38.368 15.195c-.073.093-.058.216.044.278.349.232 1.237.695 2.154.556.917-.139 1.615-.88 1.892-1.205.073-.093.058-.216-.044-.278-.35-.232-1.237-.695-2.154-.556-.917.139-1.615.88-1.892 1.205zM47.992 13.152a.192.192 0 0 1 .044.278c-.277.325-.977 1.066-1.896 1.205-.919.14-1.794-.324-2.158-.556a.192.192 0 0 1-.044-.278c.277-.324.977-1.066 1.896-1.205.919-.14 1.794.324 2.158.556zM41.114 18.976l3.459-.134s.33 1.31-1.655 1.39c-1.986.08-1.804-1.256-1.804-1.256z" fill="#FFF"/>
        <path d="M44.073 18.145c-.147 0-.279-.07-.328-.198-.065-.155.033-.34.213-.396.509-.156.59-.297.607-.34.05-.141-.213-.467-.459-.764-.295-.368-.656-.82-.886-1.372-.065-.156.033-.34.214-.396.18-.057.393.028.459.184.197.48.508.877.804 1.216.377.467.705.878.557 1.302-.147.396-.672.609-1.05.736-.049 0-.082.014-.13.014v.014z" fill="#30242A"/>
        <path d="m57.402 156.4-14.202-.275c.03 2.724.507 8.4.722 10.377l13.91.076c-.015-1.217-.568-8.946-.43-10.164v-.015z" fill="#F4A48B"/>
        <path d="m45.29 64.154-.226.075-1.24 7.017-15.51 87.667H14.631c1.709-44.522-.846-59.312 11.898-94.774h18.76v.015z" fill="#C1272D"/>
        <g transform="translate(12.542 55.776)" fill="#30242A" opacity=".25">
            <ellipse cx="1.119" cy="85.359" rx="1.029" ry="1.177"/>
            <path d="M3.646 87.516c0-.588-.484-1.071-1.074-1.071-.59 0-1.044.452-1.074 1.01 0 0 0 2.957-.424 6.818C.651 98.135 0 99.372 0 99.477c0 .392.318.694.696.694.378 0 .696-.317.696-.649 0 0 .65-7.843.756-8.16.106-.317.424-.86.545-1.176.12-.317 0-.755.106-1.177.106-.422.499-.694.499-.694a1.05 1.05 0 0 0 .363-.8h-.015z"/>
            <path d="M4.07 92.237c-.424-.106-1.407 1.177-1.62 1.93-.211.755-.423 4.601-.226 6.004 0 .075.075.136.151.136.53-.03 1.195-1.252 1.589-2.926.423-1.826.544-5.053.105-5.16v.016z"/>
            <ellipse cx="4.236" cy="90.306" rx="1.029" ry="1.177"/>
            <ellipse cx="2.194" cy="101.906" rx="1.029" ry="1.177"/>
            <path d="M6.762 92.448c0-.588-.484-1.07-1.074-1.07-.59 0-1.044.452-1.074 1.01 0 0 0 2.956-.424 6.818-.423 3.861-1.074 5.098-1.074 5.204 0 .392.318.693.696.693.378 0 .696-.316.696-.648 0 0 .65-7.844.757-8.16.105-.317.423-.86.544-1.177.121-.317 0-.754.106-1.177.106-.422.5-.693.5-.693a1.05 1.05 0 0 0 .362-.8h-.015z"/>
            <path d="M7.2 97.17c-.423-.106-1.406 1.176-1.618 1.93-.212.754-.423 4.6-.227 6.003 0 .076.076.136.152.136.529-.03 1.195-1.252 1.588-2.926.424-1.825.545-5.053.106-5.159v.015z"/>
            <ellipse cx="7.367" cy="95.239" rx="1.029" ry="1.177"/>
            <ellipse cx="5.31" cy="106.838" rx="1.029" ry="1.177"/>
            <path d="M9.894 97.396c0-.589-.484-1.071-1.074-1.071-.59 0-1.044.452-1.075 1.01 0 0 0 2.957-.423 6.818-.424 3.862-1.074 5.098-1.074 5.204 0 .392.318.694.696.694.378 0 .696-.317.696-.649 0 0 .65-7.843.756-8.16.106-.317.424-.86.545-1.177.12-.316 0-.754.105-1.176.106-.422.5-.694.5-.694a1.05 1.05 0 0 0 .363-.8h-.015z"/>
            <path d="M10.317 102.117c-.423-.106-1.407 1.176-1.618 1.93-.212.755-.424 4.601-.227 6.004 0 .075.075.136.15.136.53-.03 1.196-1.252 1.59-2.927.423-1.825.544-5.053.105-5.158v.015z"/>
            <ellipse cx="10.484" cy="100.186" rx="1.029" ry="1.177"/>
            <ellipse cx="8.441" cy="111.786" rx="1.029" ry="1.177"/>
            <path d="M13.01 102.328c0-.588-.484-1.07-1.074-1.07-.59 0-1.044.452-1.074 1.01 0 0 0 2.956-.424 6.818-.423 3.861-1.074 5.098-1.074 5.203 0 .393.318.694.696.694.378 0 .696-.316.696-.648 0 0 .65-7.844.756-8.16.106-.317.424-.86.545-1.177.121-.317 0-.754.106-1.177.106-.422.5-.694.5-.694a1.05 1.05 0 0 0 .362-.799h-.015z"/>
            <ellipse cx="13.6" cy="105.119" rx="1.029" ry="1.177"/>
            <path d="M4.402 65.282c0-.588-.484-1.07-1.074-1.07-.59 0-1.044.452-1.074 1.01 0 0 0 2.956-.424 6.818C1.407 75.9.756 77.138.756 77.244c0 .392.318.694.696.694.378 0 .696-.317.696-.649 0 0 .65-7.844.757-8.16.105-.317.423-.86.544-1.177.121-.317 0-.754.106-1.176.106-.423.5-.694.5-.694a1.05 1.05 0 0 0 .362-.8h-.015z"/>
            <path d="M4.826 70.004c-.424-.106-1.407 1.176-1.619 1.93-.212.754-.423 4.6-.227 6.004 0 .075.076.135.151.135.53-.03 1.196-1.252 1.589-2.926.423-1.825.545-5.053.106-5.158v.015z"/>
            <ellipse cx="4.992" cy="68.073" rx="1.029" ry="1.177"/>
            <ellipse cx="2.95" cy="79.672" rx="1.029" ry="1.177"/>
            <path d="M7.519 70.215c0-.589-.485-1.071-1.075-1.071s-1.043.452-1.074 1.01c0 0 0 2.957-.423 6.818-.424 3.862-1.074 5.099-1.074 5.204 0 .392.317.694.696.694.378 0 .696-.317.696-.649 0 0 .65-7.843.756-8.16.106-.317.423-.86.545-1.176.12-.317 0-.755.105-1.177.106-.422.5-.694.5-.694a1.05 1.05 0 0 0 .363-.8h-.015z"/>
            <path d="M7.957 74.951c-.423-.106-1.407 1.177-1.618 1.93-.212.755-.424 4.601-.227 6.004 0 .076.075.136.151.136.53-.03 1.195-1.252 1.588-2.926.424-1.826.545-5.053.106-5.159v.015z"/>
            <ellipse cx="8.109" cy="73.02" rx="1.029" ry="1.177"/>
            <ellipse cx="6.066" cy="84.605" rx="1.029" ry="1.177"/>
            <path d="M10.65 75.162c0-.588-.484-1.07-1.074-1.07-.59 0-1.044.452-1.074 1.01 0 0 0 2.956-.424 6.818-.423 3.861-1.074 5.098-1.074 5.204 0 .392.318.693.696.693.378 0 .696-.316.696-.648 0 0 .65-7.844.756-8.16.106-.317.424-.86.545-1.177.121-.317 0-.754.106-1.176.106-.423.5-.694.5-.694a1.05 1.05 0 0 0 .362-.8h-.015z"/>
            <path d="M11.074 79.883c-.424-.105-1.407 1.177-1.62 1.931-.21.754-.423 4.6-.226 6.003 0 .076.076.136.151.136.53-.03 1.195-1.252 1.589-2.926.423-1.825.544-5.053.106-5.159v.015z"/>
            <ellipse cx="11.24" cy="77.953" rx="1.029" ry="1.177"/>
            <ellipse cx="9.198" cy="89.552" rx="1.029" ry="1.177"/>
            <path d="M13.766 80.095c0-.589-.484-1.071-1.074-1.071-.59 0-1.044.452-1.074 1.01 0 0 0 2.957-.423 6.818-.424 3.862-1.074 5.098-1.074 5.204 0 .392.317.694.695.694.379 0 .696-.317.696-.649 0 0 .65-7.843.757-8.16.106-.317.423-.86.544-1.177.121-.316 0-.754.106-1.176.106-.422.5-.694.5-.694a1.05 1.05 0 0 0 .363-.8h-.016z"/>
            <path d="M14.205 84.83c-.423-.105-1.407 1.177-1.619 1.932-.211.754-.423 4.6-.226 6.003 0 .075.075.136.15.136.53-.03 1.196-1.252 1.59-2.927.423-1.825.544-5.053.105-5.158v.015z"/>
            <ellipse cx="14.356" cy="82.9" rx="1.029" ry="1.177"/>
            <ellipse cx="12.314" cy="94.484" rx="1.029" ry="1.177"/>
            <path d="M16.898 85.042c0-.588-.484-1.07-1.074-1.07-.59 0-1.044.452-1.074 1.01 0 0 0 2.956-.424 6.818-.423 3.861-1.074 5.098-1.074 5.203 0 .393.318.694.696.694.378 0 .696-.316.696-.648 0 0 .65-7.844.756-8.16.106-.317.424-.86.545-1.177.12-.317 0-.754.106-1.177.106-.422.499-.693.499-.693a1.05 1.05 0 0 0 .363-.8h-.015z"/>
            <path d="M17.321 89.763c-.423-.105-1.406 1.177-1.618 1.931-.212.754-.424 4.6-.227 6.003 0 .076.076.136.151.136.53-.03 1.195-1.252 1.589-2.926.423-1.825.544-5.053.105-5.159v.015z"/>
            <ellipse cx="17.488" cy="87.833" rx="1.029" ry="1.177"/>
            <ellipse cx="15.43" cy="99.432" rx="1.029" ry="1.177"/>
            <path d="M20.014 89.974c0-.588-.484-1.07-1.074-1.07-.59 0-1.044.452-1.074 1.01 0 0 0 2.957-.424 6.818-.423 3.861-1.074 5.098-1.074 5.204 0 .392.318.694.696.694.378 0 .696-.317.696-.649 0 0 .65-7.843.757-8.16.105-.317.423-.86.544-1.177.121-.316 0-.754.106-1.176.106-.423.5-.694.5-.694a1.05 1.05 0 0 0 .362-.8h-.015z"/>
            <ellipse cx="20.604" cy="92.765" rx="1.029" ry="1.177"/>
            <ellipse cx="18.562" cy="104.364" rx="1.029" ry="1.177"/>
            <path d="M5.582 47.77c-.423-.105-1.407 1.177-1.618 1.93-.212.755-.424 4.601-.227 6.004 0 .076.075.136.15.136.53-.03 1.196-1.252 1.59-2.926.423-1.825.544-5.053.105-5.159v.015z"/>
            <ellipse cx="5.749" cy="45.839" rx="1.029" ry="1.177"/>
            <ellipse cx="3.691" cy="57.439" rx="1.029" ry="1.177"/>
            <path d="M8.275 47.996c0-.588-.484-1.07-1.074-1.07-.59 0-1.044.452-1.074 1.01 0 0 0 2.957-.424 6.818-.423 3.861-1.074 5.098-1.074 5.204 0 .392.318.694.696.694.378 0 .696-.317.696-.649 0 0 .65-7.843.756-8.16.106-.317.424-.86.545-1.177.12-.317 0-.754.106-1.176.106-.423.499-.694.499-.694a1.05 1.05 0 0 0 .363-.8h-.015z"/>
            <path d="M8.699 52.718c-.424-.106-1.407 1.176-1.62 1.93-.21.755-.423 4.6-.226 6.004 0 .075.076.135.151.135.53-.03 1.195-1.252 1.589-2.926.423-1.825.544-5.053.106-5.158v.015z"/>
            <ellipse cx="8.865" cy="50.787" rx="1.029" ry="1.177"/>
            <ellipse cx="6.823" cy="62.386" rx="1.029" ry="1.177"/>
            <path d="M11.391 52.929c0-.588-.484-1.071-1.074-1.071-.59 0-1.044.452-1.074 1.01 0 0 0 2.957-.423 6.818-.424 3.862-1.075 5.099-1.075 5.204 0 .392.318.694.696.694.379 0 .696-.317.696-.649 0 0 .65-7.843.757-8.16.106-.317.423-.86.544-1.176.121-.317 0-.755.106-1.177.106-.422.5-.694.5-.694a1.05 1.05 0 0 0 .362-.8h-.015z"/>
            <path d="M11.83 57.65c-.424-.106-1.407 1.177-1.619 1.93-.211.755-.423 4.601-.227 6.004 0 .075.076.136.152.136.53-.03 1.195-1.252 1.588-2.926.424-1.826.545-5.053.106-5.16v.016z"/>
            <ellipse cx="11.996" cy="55.719" rx="1.029" ry="1.177"/>
            <ellipse cx="9.939" cy="67.319" rx="1.029" ry="1.177"/>
            <path d="M14.523 57.876c0-.588-.484-1.07-1.074-1.07-.59 0-1.044.452-1.074 1.01 0 0 0 2.956-.424 6.818-.424 3.861-1.074 5.098-1.074 5.204 0 .392.318.694.696.694.378 0 .696-.317.696-.65 0 0 .65-7.843.756-8.16.106-.316.424-.86.545-1.176.12-.317 0-.754.106-1.176.106-.423.499-.694.499-.694a1.05 1.05 0 0 0 .363-.8h-.015z"/>
            <path d="M14.946 62.597c-.423-.105-1.407 1.177-1.618 1.931-.212.754-.424 4.6-.227 6.004 0 .075.075.135.151.135.53-.03 1.195-1.252 1.588-2.926.424-1.825.545-5.053.106-5.159v.015z"/>
            <ellipse cx="15.113" cy="60.667" rx="1.029" ry="1.177"/>
            <ellipse cx="13.071" cy="72.266" rx="1.029" ry="1.177"/>
            <path d="M17.64 62.809c0-.589-.485-1.071-1.075-1.071s-1.044.452-1.074 1.01c0 0 0 2.957-.424 6.818-.423 3.862-1.074 5.098-1.074 5.204 0 .392.318.694.696.694.378 0 .696-.317.696-.649 0 0 .65-7.843.756-8.16.106-.317.424-.86.545-1.177.121-.316 0-.754.106-1.176.106-.422.5-.694.5-.694a1.05 1.05 0 0 0 .362-.8h-.015z"/>
            <path d="M18.078 67.53c-.424-.106-1.407 1.176-1.619 1.93-.212.755-.423 4.601-.227 6.004 0 .075.076.136.152.136.529-.03 1.195-1.252 1.588-2.927.424-1.825.545-5.053.106-5.158v.015z"/>
            <ellipse cx="18.244" cy="65.599" rx="1.029" ry="1.177"/>
            <ellipse cx="16.187" cy="77.199" rx="1.029" ry="1.177"/>
            <path d="M20.77 67.756c0-.588-.483-1.07-1.073-1.07s-1.044.452-1.075 1.01c0 0 0 2.956-.423 6.818-.424 3.861-1.074 5.098-1.074 5.204 0 .392.317.693.696.693.378 0 .696-.316.696-.648 0 0 .65-7.844.756-8.16.106-.317.424-.86.545-1.177.12-.317 0-.754.105-1.177.106-.422.5-.693.5-.693a1.05 1.05 0 0 0 .363-.8h-.015z"/>
            <path d="M21.194 72.477c-.423-.105-1.407 1.177-1.618 1.931-.212.754-.424 4.6-.227 6.003 0 .076.075.136.15.136.53-.03 1.196-1.252 1.59-2.926.423-1.825.544-5.053.105-5.159v.015z"/>
            <ellipse cx="21.361" cy="70.547" rx="1.029" ry="1.177"/>
            <ellipse cx="19.318" cy="82.146" rx="1.029" ry="1.177"/>
            <path d="M23.887 72.688c0-.588-.484-1.07-1.074-1.07-.59 0-1.044.452-1.074 1.01 0 0 0 2.957-.424 6.818-.423 3.861-1.074 5.098-1.074 5.204 0 .392.318.694.696.694.378 0 .696-.317.696-.649 0 0 .65-7.843.756-8.16.106-.317.424-.86.545-1.177.12-.316 0-.754.106-1.176.106-.423.499-.694.499-.694a1.05 1.05 0 0 0 .363-.8h-.015z"/>
            <ellipse cx="24.477" cy="75.479" rx="1.029" ry="1.177"/>
            <ellipse cx="22.435" cy="87.078" rx="1.029" ry="1.177"/>
            <path d="M9.455 30.484c-.424-.105-1.407 1.177-1.619 1.93-.212.755-.423 4.601-.227 6.004 0 .076.076.136.152.136.53-.03 1.195-1.252 1.588-2.926.424-1.825.545-5.053.106-5.159v.015z"/>
            <ellipse cx="9.621" cy="28.554" rx="1.029" ry="1.177"/>
            <ellipse cx="7.579" cy="40.153" rx="1.029" ry="1.177"/>
            <path d="M12.148 30.695c0-.588-.484-1.07-1.074-1.07-.59 0-1.044.452-1.074 1.01 0 0 0 2.956-.424 6.818-.424 3.861-1.074 5.098-1.074 5.204 0 .392.318.694.696.694.378 0 .696-.317.696-.649 0 0 .65-7.844.756-8.16.106-.317.424-.86.545-1.177.12-.317 0-.754.106-1.176.105-.423.499-.694.499-.694a1.05 1.05 0 0 0 .363-.8h-.015z"/>
            <path d="M12.586 35.432c-.423-.106-1.406 1.176-1.618 1.93-.212.755-.424 4.6-.227 6.004 0 .075.075.135.151.135.53-.03 1.195-1.251 1.589-2.926.423-1.825.544-5.053.105-5.158v.015z"/>
            <ellipse cx="12.738" cy="33.501" rx="1.029" ry="1.177"/>
            <ellipse cx="10.695" cy="45.085" rx="1.029" ry="1.177"/>
            <path d="M15.28 35.643c0-.588-.485-1.071-1.075-1.071s-1.044.452-1.074 1.01c0 0 0 2.957-.424 6.818-.423 3.862-1.074 5.099-1.074 5.204 0 .392.318.694.696.694.378 0 .696-.317.696-.648 0 0 .65-7.844.757-8.16.105-.318.423-.86.544-1.177.121-.317 0-.755.106-1.177.106-.422.5-.694.5-.694a1.05 1.05 0 0 0 .362-.8h-.015z"/>
            <path d="M15.703 40.364c-.424-.106-1.407 1.177-1.619 1.93-.212.755-.423 4.601-.227 6.004 0 .076.076.136.151.136.53-.03 1.196-1.252 1.589-2.926.423-1.826.544-5.053.106-5.159v.015z"/>
            <ellipse cx="15.869" cy="38.433" rx="1.029" ry="1.177"/>
            <ellipse cx="13.827" cy="50.033" rx="1.029" ry="1.177"/>
            <path d="M18.396 40.575c0-.588-.485-1.07-1.075-1.07s-1.043.452-1.074 1.01c0 0 0 2.956-.423 6.818-.424 3.861-1.074 5.098-1.074 5.204 0 .392.317.693.696.693.378 0 .695-.316.695-.648 0 0 .651-7.844.757-8.16.106-.317.423-.86.544-1.177.122-.317 0-.754.106-1.176.106-.423.5-.694.5-.694a1.05 1.05 0 0 0 .363-.8h-.015z"/>
            <path d="M18.834 45.312c-.423-.106-1.407 1.176-1.618 1.93-.212.754-.424 4.6-.227 6.004 0 .075.075.135.15.135.53-.03 1.196-1.252 1.59-2.926.423-1.825.544-5.053.105-5.159v.016z"/>
            <ellipse cx="18.986" cy="43.381" rx="1.029" ry="1.177"/>
            <ellipse cx="16.943" cy="54.965" rx="1.029" ry="1.177"/>
            <path d="M21.527 45.523c0-.589-.484-1.071-1.074-1.071-.59 0-1.044.452-1.074 1.01 0 0 0 2.957-.424 6.818-.423 3.862-1.074 5.099-1.074 5.204 0 .392.318.694.696.694.378 0 .696-.317.696-.649 0 0 .65-7.843.756-8.16.106-.317.424-.86.545-1.176.121-.317 0-.755.106-1.177.106-.422.5-.694.5-.694a1.05 1.05 0 0 0 .362-.8h-.015z"/>
            <path d="M21.95 50.244c-.423-.106-1.406 1.176-1.618 1.93-.212.755-.424 4.601-.227 6.004 0 .075.076.136.151.136.53-.03 1.195-1.252 1.589-2.927.423-1.825.544-5.053.106-5.158v.015z"/>
            <ellipse cx="22.117" cy="48.313" rx="1.029" ry="1.177"/>
            <ellipse cx="20.075" cy="59.913" rx="1.029" ry="1.177"/>
            <path d="M24.643 50.455c0-.588-.484-1.07-1.074-1.07-.59 0-1.044.452-1.074 1.01 0 0 0 2.956-.423 6.818-.424 3.861-1.074 5.098-1.074 5.203 0 .393.317.694.695.694.379 0 .696-.316.696-.648 0 0 .65-7.844.757-8.16.106-.317.423-.86.544-1.177.121-.317 0-.754.106-1.177.106-.422.5-.693.5-.693a1.05 1.05 0 0 0 .363-.8h-.016z"/>
            <path d="M25.082 55.191c-.423-.105-1.407 1.177-1.619 1.931-.211.754-.423 4.6-.227 6.003 0 .076.076.136.152.136.53-.03 1.195-1.252 1.588-2.926.424-1.825.545-5.053.106-5.159v.015z"/>
            <ellipse cx="25.233" cy="53.261" rx="1.029" ry="1.177"/>
            <ellipse cx="23.191" cy="64.845" rx="1.029" ry="1.177"/>
            <path d="M27.775 55.403c0-.589-.484-1.071-1.074-1.071-.59 0-1.044.452-1.074 1.01 0 0 0 2.957-.424 6.818-.423 3.861-1.074 5.098-1.074 5.204 0 .392.318.694.696.694.378 0 .696-.317.696-.649 0 0 .65-7.843.756-8.16.106-.317.424-.86.545-1.177.12-.316 0-.754.106-1.176.106-.423.499-.694.499-.694a1.05 1.05 0 0 0 .363-.8h-.015z"/>
            <ellipse cx="26.323" cy="69.792" rx="1.029" ry="1.177"/>
            <path d="M13.343 13.198c-.424-.105-1.407 1.177-1.619 1.931-.212.754-.423 4.6-.227 6.003 0 .076.076.136.151.136.53-.03 1.196-1.252 1.589-2.926.424-1.825.545-5.053.106-5.159v.015z"/>
            <ellipse cx="11.452" cy="22.867" rx="1.029" ry="1.177"/>
            <path d="M16.036 13.41c0-.589-.484-1.072-1.074-1.072-.59 0-1.044.453-1.075 1.011 0 0 0 2.957-.423 6.818-.424 3.861-1.074 5.098-1.074 5.204 0 .392.317.694.696.694.378 0 .696-.317.696-.649 0 0 .65-7.843.756-8.16.106-.317.424-.86.545-1.177.12-.317 0-.754.105-1.176.106-.423.5-.694.5-.694a1.05 1.05 0 0 0 .363-.8h-.015z"/>
            <path d="M16.46 18.146c-.424-.106-1.408 1.176-1.62 1.93-.211.755-.423 4.601-.226 6.004 0 .075.075.136.15.136.53-.03 1.196-1.252 1.59-2.927.423-1.825.544-5.053.105-5.158v.015z"/>
            <ellipse cx="16.626" cy="16.2" rx="1.029" ry="1.177"/>
            <ellipse cx="14.583" cy="27.799" rx="1.029" ry="1.177"/>
            <path d="M19.152 18.357c0-.588-.484-1.071-1.074-1.071-.59 0-1.044.452-1.074 1.01 0 0 0 2.957-.424 6.818-.423 3.862-1.074 5.099-1.074 5.204 0 .392.318.694.696.694.378 0 .696-.317.696-.648 0 0 .65-7.844.756-8.16.106-.318.424-.86.545-1.177.12-.317 0-.754.106-1.177.106-.422.499-.694.499-.694a1.05 1.05 0 0 0 .363-.8h-.015z"/>
            <path d="M19.59 23.078c-.423-.105-1.406 1.177-1.618 1.93-.212.755-.424 4.601-.227 6.004 0 .076.076.136.151.136.53-.03 1.195-1.252 1.589-2.926.423-1.825.544-5.053.106-5.159v.015z"/>
            <ellipse cx="19.742" cy="21.147" rx="1.029" ry="1.177"/>
            <ellipse cx="17.7" cy="32.747" rx="1.029" ry="1.177"/>
            <path d="M22.283 23.29c0-.589-.484-1.072-1.074-1.072-.59 0-1.043.453-1.074 1.01 0 0 0 2.957-.423 6.819-.424 3.861-1.074 5.098-1.074 5.204 0 .392.317.694.695.694.379 0 .696-.317.696-.65 0 0 .65-7.843.757-8.16.106-.316.423-.86.544-1.176.121-.317 0-.754.106-1.176.106-.423.5-.694.5-.694a1.05 1.05 0 0 0 .363-.8h-.016z"/>
            <path d="M22.707 28.01c-.424-.105-1.407 1.177-1.619 1.931-.211.754-.423 4.6-.227 6.004 0 .075.076.135.152.135.53-.03 1.195-1.252 1.588-2.926.424-1.825.545-5.053.106-5.159v.015z"/>
            <ellipse cx="22.873" cy="26.08" rx="1.029" ry="1.177"/>
            <ellipse cx="20.816" cy="37.679" rx="1.029" ry="1.177"/>
            <path d="M25.4 28.237c0-.589-.484-1.071-1.074-1.071-.59 0-1.044.452-1.074 1.01 0 0 0 2.957-.424 6.818-.424 3.862-1.074 5.099-1.074 5.204 0 .392.318.694.696.694.378 0 .696-.317.696-.649 0 0 .65-7.843.756-8.16.106-.317.424-.86.545-1.176.12-.317 0-.755.106-1.177.106-.422.499-.694.499-.694a1.05 1.05 0 0 0 .363-.8H25.4z"/>
            <path d="M25.823 32.958c-.423-.106-1.407 1.176-1.618 1.93-.212.755-.424 4.601-.227 6.004 0 .075.075.136.151.136.53-.03 1.195-1.252 1.588-2.926.424-1.826.545-5.054.106-5.16v.016z"/>
            <ellipse cx="25.99" cy="31.027" rx="1.029" ry="1.177"/>
            <ellipse cx="23.947" cy="42.627" rx="1.029" ry="1.177"/>
            <path d="M28.516 33.17c0-.59-.484-1.072-1.074-1.072-.59 0-1.044.453-1.074 1.01 0 0 0 2.957-.424 6.819-.423 3.861-1.074 5.098-1.074 5.204 0 .392.318.693.696.693.378 0 .696-.316.696-.648 0 0 .65-7.844.756-8.16.106-.317.424-.86.545-1.177.121-.317 0-.754.106-1.177.106-.422.5-.693.5-.693a1.05 1.05 0 0 0 .362-.8h-.015z"/>
            <path d="M28.955 37.89c-.424-.105-1.407 1.177-1.619 1.931-.212.754-.423 4.6-.227 6.003 0 .076.076.136.152.136.529-.03 1.195-1.252 1.588-2.926.424-1.825.545-5.053.106-5.159v.015z"/>
            <ellipse cx="29.121" cy="35.96" rx="1.029" ry="1.177"/>
            <ellipse cx="27.064" cy="47.559" rx="1.029" ry="1.177"/>
            <path d="M31.648 38.117c0-.589-.484-1.071-1.074-1.071-.59 0-1.044.452-1.075 1.01 0 0 0 2.957-.423 6.818-.424 3.862-1.074 5.098-1.074 5.204 0 .392.317.694.696.694.378 0 .696-.317.696-.649 0 0 .65-7.843.756-8.16.106-.317.424-.86.545-1.177.12-.316 0-.754.105-1.176.106-.422.5-.694.5-.694a1.05 1.05 0 0 0 .363-.8h-.015z"/>
            <path d="M32.071 42.838c-.423-.106-1.407 1.176-1.618 1.93-.212.755-.424 4.601-.227 6.004 0 .075.075.136.15.136.53-.03 1.196-1.252 1.59-2.927.423-1.825.544-5.053.105-5.158v.015z"/>
            <ellipse cx="32.238" cy="40.907" rx="1.029" ry="1.177"/>
            <ellipse cx="30.195" cy="52.506" rx="1.029" ry="1.177"/>
            <ellipse cx="18.456" cy="10.513" rx="1.029" ry="1.177"/>
            <path d="M23.025 1.07C23.025.484 22.54 0 21.95 0c-.59 0-1.044.453-1.074 1.01 0 0 0 2.957-.424 6.818-.424 3.862-1.074 5.099-1.074 5.204 0 .393.318.694.696.694.378 0 .696-.317.696-.648 0 0 .65-7.844.756-8.16.106-.317.424-.86.545-1.177.12-.317 0-.754.106-1.177.105-.422.499-.694.499-.694a1.05 1.05 0 0 0 .363-.8h-.015z"/>
            <path d="M23.463 5.792c-.423-.105-1.406 1.177-1.618 1.93-.212.755-.424 4.601-.227 6.004 0 .076.075.136.151.136.53-.03 1.195-1.252 1.589-2.926.423-1.825.544-5.053.105-5.159v.015z"/>
            <ellipse cx="23.63" cy="3.861" rx="1.029" ry="1.177"/>
            <ellipse cx="21.572" cy="15.461" rx="1.029" ry="1.177"/>
            <path d="M26.156 6.003c0-.588-.484-1.07-1.074-1.07-.59 0-1.044.452-1.074 1.01 0 0 0 2.956-.424 6.818-.423 3.861-1.074 5.098-1.074 5.204 0 .392.318.694.696.694.378 0 .696-.317.696-.649 0 0 .65-7.844.757-8.16.105-.317.423-.86.544-1.177.121-.317 0-.754.106-1.176.106-.423.5-.694.5-.694a1.05 1.05 0 0 0 .362-.8h-.015z"/>
            <path d="M26.58 10.725c-.424-.106-1.407 1.176-1.619 1.93-.212.754-.424 4.6-.227 6.004 0 .075.076.135.151.135.53-.03 1.196-1.252 1.589-2.926.423-1.825.544-5.053.106-5.159v.016z"/>
            <ellipse cx="26.746" cy="8.794" rx="1.029" ry="1.177"/>
            <ellipse cx="24.704" cy="20.393" rx="1.029" ry="1.177"/>
            <path d="M29.273 10.95c0-.587-.485-1.07-1.075-1.07s-1.043.452-1.074 1.01c0 0 0 2.957-.423 6.818-.424 3.862-1.074 5.099-1.074 5.204 0 .392.317.694.696.694.378 0 .695-.317.695-.649 0 0 .651-7.843.757-8.16.106-.317.423-.86.544-1.176.121-.317 0-.755.106-1.177.106-.422.5-.694.5-.694a1.05 1.05 0 0 0 .363-.8h-.015z"/>
            <path d="M29.711 15.672c-.423-.106-1.407 1.177-1.618 1.93-.212.755-.424 4.601-.227 6.004 0 .075.075.136.15.136.53-.03 1.196-1.252 1.59-2.926.423-1.826.544-5.054.105-5.16v.016z"/>
            <ellipse cx="29.863" cy="13.741" rx="1.029" ry="1.177"/>
            <ellipse cx="27.82" cy="25.341" rx="1.029" ry="1.177"/>
            <path d="M32.404 15.883c0-.588-.484-1.07-1.074-1.07-.59 0-1.044.452-1.074 1.01 0 0 0 2.956-.424 6.818-.423 3.861-1.074 5.098-1.074 5.204 0 .392.318.693.696.693.378 0 .696-.316.696-.648 0 0 .65-7.844.756-8.16.106-.317.424-.86.545-1.177.121-.317 0-.754.106-1.177.106-.422.5-.693.5-.693a1.05 1.05 0 0 0 .362-.8h-.015z"/>
            <path d="M32.828 20.604c-.424-.105-1.407 1.177-1.62 1.931-.21.754-.423 4.6-.226 6.003 0 .076.076.136.151.136.53-.03 1.195-1.252 1.589-2.926.423-1.825.544-5.053.106-5.159v.015z"/>
            <ellipse cx="32.994" cy="18.674" rx="1.029" ry="1.177"/>
            <ellipse cx="30.952" cy="30.273" rx="1.029" ry="1.177"/>
            <path d="M35.52 20.816c0-.589-.484-1.071-1.074-1.071-.59 0-1.044.452-1.074 1.01 0 0 0 2.957-.423 6.818-.424 3.861-1.074 5.098-1.074 5.204 0 .392.317.694.695.694.379 0 .696-.317.696-.649 0 0 .65-7.843.757-8.16.106-.317.423-.86.544-1.177.121-.316 0-.754.106-1.176.106-.423.5-.694.5-.694a1.05 1.05 0 0 0 .362-.8h-.015z"/>
            <ellipse cx="34.068" cy="35.205" rx="1.029" ry="1.177"/>
        </g>
        <path d="M44.594 25.054c-.574 0-1.164-.014-1.737 0a.61.61 0 0 0-.354.126c.691-.07 1.383-.098 2.09-.126zM52.913 27.901l.084-2.09h-.056z" fill="#D49FD0"/>
        <path d="M28.583 158.913H61.35c5.744-33.575 3.945-62.683-2.675-94.35l-13.346-.424-16.762 94.774h.015z" fill="#A01823"/>
        <g transform="translate(28.568 51.595)" fill="#30242A" opacity=".2">
            <path d="M4.038 91.461a1.18 1.18 0 0 0-1.186-1.189c-.66 0-1.156.497-1.186 1.13 0 0 0 3.28-.48 7.553C.706 103.23 0 104.598 0 104.718a.77.77 0 0 0 .766.768c.42 0 .765-.361.765-.707 0 0 .706-8.683.826-9.044.12-.361.48-.948.6-1.31.12-.36 0-.827.12-1.308.12-.482.556-.783.556-.783.24-.21.405-.542.405-.888v.015z"/>
            <path d="M4.503 96.698c-.48-.12-1.546 1.31-1.786 2.137s-.465 5.101-.255 6.65c0 .091.09.151.165.151.57-.03 1.306-1.384 1.741-3.235.48-2.016.6-5.598.12-5.703h.015z"/>
            <ellipse cx="4.683" cy="94.561" rx="1.126" ry="1.309"/>
            <path d="M7.475 96.939a1.18 1.18 0 0 0-1.185-1.19c-.66 0-1.156.497-1.186 1.13 0 0 0 3.28-.48 7.554-.481 4.273-1.187 5.643-1.187 5.763a.77.77 0 0 0 .766.767c.42 0 .766-.36.766-.707 0 0 .705-8.683.825-9.044.12-.36.48-.948.6-1.309s0-.827.12-1.309.556-.783.556-.783c.24-.21.405-.541.405-.887v.015z"/>
            <path d="M7.94 102.175c-.48-.12-1.545 1.31-1.786 2.137-.24.828-.465 5.101-.255 6.651 0 .09.09.15.165.15.57-.03 1.306-1.384 1.742-3.234.48-2.017.6-5.598.12-5.704h.015z"/>
            <ellipse cx="8.121" cy="100.024" rx="1.126" ry="1.309"/>
            <path d="M10.913 102.401a1.18 1.18 0 0 0-1.186-1.189c-.66 0-1.156.497-1.186 1.129 0 0 0 3.28-.48 7.554-.48 4.274-1.186 5.643-1.186 5.763a.77.77 0 0 0 .765.768c.42 0 .766-.361.766-.707 0 0 .706-8.683.826-9.044.12-.361.48-.948.6-1.31.12-.36 0-.827.12-1.309.12-.481.556-.782.556-.782.24-.21.405-.542.405-.888v.015z"/>
            <ellipse cx="11.573" cy="105.501" rx="1.126" ry="1.309"/>
            <path d="M8.301 72.32a1.18 1.18 0 0 0-1.186-1.188c-.66 0-1.156.496-1.186 1.128 0 0 0 3.28-.48 7.554-.48 4.274-1.186 5.643-1.186 5.764a.77.77 0 0 0 .766.767c.42 0 .765-.361.765-.707 0 0 .706-8.683.826-9.044.12-.361.48-.948.6-1.31.12-.36 0-.827.12-1.308.12-.482.556-.783.556-.783.24-.21.405-.542.405-.888v.015zM8.781 77.542c-.48-.12-1.546 1.31-1.786 2.137s-.465 5.101-.255 6.65c0 .091.09.151.165.151.57-.03 1.306-1.384 1.741-3.235.48-2.016.6-5.598.12-5.703h.015z"/>
            <ellipse cx="8.961" cy="75.405" rx="1.126" ry="1.309"/>
            <ellipse cx="6.695" cy="88.256" rx="1.126" ry="1.309"/>
            <path d="M11.738 77.783a1.18 1.18 0 0 0-1.185-1.19c-.66 0-1.156.497-1.186 1.13 0 0 0 3.28-.48 7.554C8.405 89.55 7.7 90.92 7.7 91.04a.77.77 0 0 0 .765.767c.42 0 .766-.36.766-.707 0 0 .705-8.683.825-9.044.12-.36.48-.948.6-1.309s0-.827.12-1.309.556-.783.556-.783c.24-.21.405-.541.405-.887v.015zM12.219 83.02c-.48-.121-1.546 1.309-1.786 2.136-.24.828-.466 5.101-.256 6.651 0 .09.09.15.165.15.57-.03 1.306-1.384 1.742-3.234.48-2.017.6-5.598.12-5.704h.015z"/>
            <ellipse cx="12.399" cy="80.883" rx="1.126" ry="1.309"/>
            <ellipse cx="10.147" cy="93.718" rx="1.126" ry="1.309"/>
            <path d="M15.19 83.26a1.18 1.18 0 0 0-1.185-1.189c-.66 0-1.156.497-1.186 1.129 0 0 0 3.28-.48 7.554-.48 4.274-1.186 5.643-1.186 5.763a.77.77 0 0 0 .766.768c.42 0 .765-.361.765-.707 0 0 .706-8.683.826-9.044.12-.361.48-.948.6-1.31.12-.36 0-.827.12-1.309.12-.481.556-.782.556-.782.24-.21.405-.542.405-.888v.015z"/>
            <path d="M15.656 88.497c-.48-.12-1.546 1.309-1.786 2.137-.24.827-.465 5.1-.255 6.65 0 .091.09.151.165.151.57-.03 1.306-1.384 1.741-3.235.48-2.016.6-5.598.12-5.703h.015z"/>
            <ellipse cx="15.836" cy="86.345" rx="1.126" ry="1.309"/>
            <ellipse cx="13.585" cy="99.196" rx="1.126" ry="1.309"/>
            <path d="M18.628 88.723a1.18 1.18 0 0 0-1.185-1.19c-.66 0-1.156.497-1.186 1.13 0 0 0 3.28-.48 7.553-.481 4.274-1.186 5.643-1.186 5.764a.77.77 0 0 0 .765.767c.42 0 .766-.361.766-.707 0 0 .705-8.683.825-9.044.12-.361.48-.948.6-1.309s0-.828.12-1.31c.12-.48.556-.782.556-.782.24-.21.405-.541.405-.888v.016z"/>
            <path d="M19.094 93.96c-.48-.121-1.546 1.308-1.787 2.136-.24.828-.465 5.101-.255 6.651 0 .09.09.15.165.15.57-.03 1.306-1.384 1.742-3.235.48-2.016.6-5.597.12-5.703h.015z"/>
            <ellipse cx="19.274" cy="91.822" rx="1.126" ry="1.309"/>
            <ellipse cx="17.022" cy="104.673" rx="1.126" ry="1.309"/>
            <path d="M22.066 94.2a1.18 1.18 0 0 0-1.186-1.189c-.66 0-1.156.497-1.186 1.129 0 0 0 3.28-.48 7.554-.48 4.289-1.186 5.643-1.186 5.763a.77.77 0 0 0 .766.768c.42 0 .765-.362.765-.708 0 0 .706-8.682.826-9.043.12-.362.48-.948.6-1.31.12-.36 0-.827.12-1.309.12-.481.556-.782.556-.782.24-.21.405-.542.405-.888v.015zM22.546 99.437c-.48-.12-1.546 1.309-1.786 2.136-.24.828-.465 5.102-.255 6.652 0 .09.09.15.165.15.57-.03 1.306-1.384 1.741-3.235.48-2.017.6-5.598.12-5.703h.015z"/>
            <ellipse cx="22.726" cy="97.3" rx="1.126" ry="1.309"/>
            <path d="M25.503 99.677a1.18 1.18 0 0 0-1.185-1.188c-.661 0-1.156.496-1.186 1.128 0 0 0 3.28-.48 7.554-.481 4.274-1.187 5.643-1.187 5.764a.77.77 0 0 0 .766.767c.42 0 .766-.361.766-.707 0 0 .705-8.683.825-9.044.12-.361.48-.948.6-1.31.12-.36 0-.827.12-1.308.12-.482.556-.783.556-.783.24-.21.405-.542.405-.888v.015z"/>
            <ellipse cx="26.164" cy="102.762" rx="1.126" ry="1.309"/>
            <path d="M28.956 105.14a1.18 1.18 0 0 0-1.186-1.189c-.66 0-1.156.497-1.186 1.129 0 0 0 3.28-.48 7.554-.48 4.273-1.186 5.643-1.186 5.763a.77.77 0 0 0 .765.767c.42 0 .766-.36.766-.707 0 0 .706-8.682.826-9.044.12-.36.48-.948.6-1.309.12-.36 0-.827.12-1.309.12-.481.556-.782.556-.782.24-.211.405-.542.405-.888v.015zM9.607 52.924c-.48-.12-1.546 1.309-1.786 2.136-.24.828-.466 5.102-.256 6.652 0 .09.09.15.166.15.57-.03 1.306-1.384 1.74-3.235.481-2.017.601-5.598.12-5.703h.016z"/>
            <ellipse cx="9.787" cy="50.787" rx="1.126" ry="1.309"/>
            <ellipse cx="7.535" cy="63.638" rx="1.126" ry="1.309"/>
            <path d="M12.58 53.164a1.18 1.18 0 0 0-1.187-1.188c-.66 0-1.156.496-1.186 1.128 0 0 0 3.28-.48 7.554-.48 4.274-1.186 5.643-1.186 5.764a.77.77 0 0 0 .766.767c.42 0 .765-.361.765-.707 0 0 .706-8.683.826-9.044.12-.361.48-.948.6-1.31.12-.36 0-.827.12-1.308.12-.482.556-.783.556-.783.24-.21.405-.542.405-.888v.015z"/>
            <path d="M13.044 58.401c-.48-.12-1.546 1.31-1.786 2.137s-.465 5.101-.255 6.651c0 .09.09.15.165.15.57-.03 1.306-1.384 1.741-3.235.48-2.016.6-5.598.12-5.703h.015z"/>
            <ellipse cx="13.225" cy="56.264" rx="1.126" ry="1.309"/>
            <ellipse cx="10.973" cy="69.1" rx="1.126" ry="1.309"/>
            <path d="M16.017 58.642a1.18 1.18 0 0 0-1.186-1.189c-.66 0-1.156.497-1.186 1.129 0 0 0 3.28-.48 7.554-.48 4.273-1.186 5.643-1.186 5.763a.77.77 0 0 0 .765.767c.42 0 .766-.36.766-.707 0 0 .705-8.682.825-9.044.12-.36.48-.948.6-1.309s0-.827.12-1.309.556-.782.556-.782c.24-.211.406-.542.406-.888v.015zM16.497 63.863c-.48-.12-1.546 1.31-1.786 2.137-.24.828-.466 5.101-.256 6.651 0 .09.09.15.166.15.57-.03 1.305-1.384 1.74-3.234.481-2.017.601-5.598.12-5.704h.016z"/>
            <ellipse cx="16.662" cy="61.727" rx="1.126" ry="1.309"/>
            <ellipse cx="14.41" cy="74.577" rx="1.126" ry="1.309"/>
            <path d="M19.454 64.104a1.18 1.18 0 0 0-1.186-1.189c-.66 0-1.156.497-1.186 1.129 0 0 0 3.28-.48 7.554-.48 4.274-1.186 5.643-1.186 5.763a.77.77 0 0 0 .766.768c.42 0 .765-.361.765-.707 0 0 .706-8.683.826-9.044.12-.361.48-.948.6-1.31.12-.36 0-.827.12-1.309.12-.481.556-.782.556-.782.24-.21.405-.542.405-.888v.015zM19.934 69.34c-.48-.12-1.546 1.31-1.786 2.138-.24.827-.465 5.1-.255 6.65 0 .091.09.151.165.151.57-.03 1.306-1.384 1.741-3.235.48-2.016.6-5.598.12-5.703h.015z"/>
            <ellipse cx="20.114" cy="67.204" rx="1.126" ry="1.309"/>
            <ellipse cx="17.848" cy="80.04" rx="1.126" ry="1.309"/>
            <path d="M22.891 69.582a1.18 1.18 0 0 0-1.185-1.19c-.66 0-1.156.497-1.186 1.13 0 0 0 3.28-.48 7.553-.48 4.274-1.186 5.643-1.186 5.764a.77.77 0 0 0 .765.767c.42 0 .766-.36.766-.707 0 0 .705-8.683.825-9.044.12-.361.48-.948.6-1.309s0-.828.12-1.31c.12-.48.556-.782.556-.782.24-.21.405-.541.405-.887v.015zM23.372 74.818c-.48-.12-1.546 1.31-1.786 2.137-.24.828-.466 5.101-.256 6.651 0 .09.09.15.165.15.57-.03 1.306-1.384 1.742-3.235.48-2.016.6-5.597.12-5.703h.015z"/>
            <ellipse cx="23.552" cy="72.666" rx="1.126" ry="1.309"/>
            <ellipse cx="21.3" cy="85.517" rx="1.126" ry="1.309"/>
            <path d="M26.344 75.044a1.18 1.18 0 0 0-1.186-1.189c-.66 0-1.156.497-1.186 1.129 0 0 0 3.28-.48 7.554-.48 4.273-1.186 5.643-1.186 5.763a.77.77 0 0 0 .766.768c.42 0 .765-.362.765-.708 0 0 .706-8.682.826-9.043.12-.362.48-.948.6-1.31.12-.36 0-.827.12-1.309.12-.481.556-.782.556-.782.24-.21.405-.542.405-.888v.015z"/>
            <path d="M26.81 80.28c-.481-.12-1.547 1.31-1.787 2.137-.24.828-.465 5.102-.255 6.652 0 .09.09.15.165.15.57-.03 1.306-1.384 1.741-3.235.48-2.017.6-5.598.12-5.703h.015z"/>
            <ellipse cx="26.989" cy="78.144" rx="1.126" ry="1.309"/>
            <ellipse cx="24.738" cy="90.995" rx="1.126" ry="1.309"/>
            <path d="M29.781 80.521a1.18 1.18 0 0 0-1.185-1.188c-.66 0-1.156.496-1.186 1.128 0 0 0 3.28-.48 7.554-.481 4.274-1.186 5.643-1.186 5.764a.77.77 0 0 0 .765.767c.42 0 .766-.361.766-.707 0 0 .705-8.683.825-9.044.12-.361.48-.948.6-1.31.12-.36 0-.827.12-1.308.12-.482.556-.783.556-.783.24-.21.405-.542.405-.888v.015z"/>
            <path d="M30.247 85.758c-.48-.12-1.546 1.31-1.787 2.137-.24.828-.465 5.101-.255 6.651 0 .09.09.15.165.15.57-.03 1.306-1.384 1.742-3.235.48-2.016.6-5.598.12-5.703h.015z"/>
            <ellipse cx="30.427" cy="83.621" rx="1.126" ry="1.309"/>
            <ellipse cx="28.175" cy="96.457" rx="1.126" ry="1.309"/>
            <path d="M33.219 85.999a1.18 1.18 0 0 0-1.186-1.189c-.66 0-1.156.497-1.186 1.129 0 0 0 3.28-.48 7.554-.48 4.273-1.186 5.643-1.186 5.763a.77.77 0 0 0 .766.768c.42 0 .765-.362.765-.708 0 0 .706-8.682.826-9.044.12-.36.48-.948.6-1.309.12-.36 0-.827.12-1.309.12-.481.556-.782.556-.782.24-.211.405-.542.405-.888v.015zM33.7 91.22c-.481-.12-1.547 1.31-1.787 2.137-.24.828-.465 5.102-.255 6.651 0 .09.09.151.165.151.57-.03 1.306-1.384 1.741-3.235.48-2.017.6-5.598.12-5.704h.015z"/>
            <ellipse cx="33.879" cy="89.084" rx="1.126" ry="1.309"/>
            <ellipse cx="31.613" cy="101.935" rx="1.126" ry="1.309"/>
            <path d="M36.656 91.461a1.18 1.18 0 0 0-1.185-1.189c-.66 0-1.156.497-1.186 1.13 0 0 0 3.28-.48 7.553-.481 4.274-1.187 5.643-1.187 5.763a.77.77 0 0 0 .766.768c.42 0 .766-.361.766-.707 0 0 .705-8.683.825-9.044.12-.361.48-.948.6-1.31.12-.36 0-.827.12-1.308.12-.482.556-.783.556-.783.24-.21.405-.542.405-.888v.015zM13.885 33.783c-.48-.12-1.546 1.309-1.786 2.136-.24.828-.466 5.102-.255 6.652 0 .09.09.15.165.15.57-.03 1.306-1.384 1.74-3.235.481-2.017.601-5.598.121-5.703h.015z"/>
            <ellipse cx="14.065" cy="31.631" rx="1.126" ry="1.309"/>
            <ellipse cx="11.798" cy="44.482" rx="1.126" ry="1.309"/>
            <path d="M16.842 34.008a1.18 1.18 0 0 0-1.186-1.188c-.66 0-1.156.496-1.186 1.128 0 0 0 3.28-.48 7.554-.48 4.274-1.186 5.643-1.186 5.764a.77.77 0 0 0 .766.767c.42 0 .765-.361.765-.707 0 0 .706-8.683.826-9.044.12-.361.48-.948.6-1.31.12-.36 0-.827.12-1.308.12-.482.556-.783.556-.783.24-.21.405-.542.405-.888v.015zM17.322 39.245c-.48-.12-1.546 1.31-1.786 2.137s-.465 5.101-.255 6.651c0 .09.09.15.165.15.57-.03 1.306-1.384 1.741-3.235.48-2.016.6-5.598.12-5.703h.015z"/>
            <ellipse cx="17.503" cy="37.108" rx="1.126" ry="1.309"/>
            <ellipse cx="15.251" cy="49.959" rx="1.126" ry="1.309"/>
            <path d="M20.28 39.486a1.18 1.18 0 0 0-1.186-1.189c-.66 0-1.156.497-1.186 1.129 0 0 0 3.28-.48 7.554-.48 4.273-1.186 5.643-1.186 5.763a.77.77 0 0 0 .765.767c.42 0 .766-.36.766-.707 0 0 .705-8.682.825-9.044.12-.36.48-.948.6-1.309s0-.827.12-1.309c.121-.482.556-.782.556-.782.24-.211.406-.542.406-.888v.015zM20.76 44.722c-.48-.12-1.546 1.31-1.786 2.137-.24.828-.466 5.101-.256 6.651 0 .09.09.15.166.15.57-.03 1.306-1.384 1.74-3.234.481-2.017.601-5.598.12-5.704h.016z"/>
            <ellipse cx="20.94" cy="42.586" rx="1.126" ry="1.309"/>
            <ellipse cx="18.688" cy="55.421" rx="1.126" ry="1.309"/>
            <path d="M23.732 44.963a1.18 1.18 0 0 0-1.186-1.189c-.66 0-1.156.497-1.186 1.129 0 0 0 3.28-.48 7.554-.48 4.274-1.186 5.643-1.186 5.763a.77.77 0 0 0 .766.768c.42 0 .765-.361.765-.707 0 0 .706-8.683.826-9.044.12-.361.48-.948.6-1.31.12-.36 0-.827.12-1.309.12-.481.556-.782.556-.782.24-.21.405-.542.405-.888v.015z"/>
            <path d="M24.197 50.185c-.48-.12-1.546 1.309-1.786 2.137-.24.827-.465 5.1-.255 6.65 0 .091.09.151.165.151.57-.03 1.306-1.384 1.741-3.235.48-2.016.6-5.598.12-5.703h.015z"/>
            <ellipse cx="24.378" cy="48.048" rx="1.126" ry="1.309"/>
            <ellipse cx="22.126" cy="60.899" rx="1.126" ry="1.309"/>
            <path d="M27.17 50.426a1.18 1.18 0 0 0-1.186-1.19c-.66 0-1.156.497-1.186 1.13 0 0 0 3.28-.48 7.553-.48 4.274-1.186 5.643-1.186 5.764a.77.77 0 0 0 .765.767c.42 0 .766-.36.766-.707 0 0 .705-8.683.825-9.044.12-.361.48-.948.6-1.309s0-.828.12-1.31c.12-.48.556-.782.556-.782.24-.21.406-.541.406-.887v.015zM27.65 55.662c-.48-.12-1.546 1.31-1.786 2.137-.24.828-.466 5.101-.256 6.651 0 .09.09.15.166.15.57-.03 1.305-1.384 1.74-3.235.481-2.016.601-5.597.12-5.703h.016z"/>
            <ellipse cx="27.815" cy="53.525" rx="1.126" ry="1.309"/>
            <ellipse cx="25.563" cy="66.361" rx="1.126" ry="1.309"/>
            <path d="M30.607 55.903a1.18 1.18 0 0 0-1.186-1.189c-.66 0-1.156.497-1.186 1.129 0 0 0 3.28-.48 7.554-.48 4.273-1.186 5.643-1.186 5.763a.77.77 0 0 0 .766.768c.42 0 .765-.361.765-.708 0 0 .706-8.682.826-9.043.12-.362.48-.948.6-1.31.12-.36 0-.827.12-1.309.12-.481.556-.782.556-.782.24-.21.405-.542.405-.888v.015zM31.087 61.14c-.48-.12-1.546 1.309-1.786 2.137-.24.827-.465 5.1-.255 6.65 0 .091.09.151.165.151.57-.03 1.306-1.384 1.741-3.235.48-2.017.6-5.598.12-5.703h.015z"/>
            <ellipse cx="31.268" cy="58.988" rx="1.126" ry="1.309"/>
            <ellipse cx="29.001" cy="71.839" rx="1.126" ry="1.309"/>
            <path d="M34.045 61.365a1.18 1.18 0 0 0-1.186-1.188c-.66 0-1.156.496-1.186 1.128 0 0 0 3.28-.48 7.554-.48 4.274-1.186 5.643-1.186 5.764a.77.77 0 0 0 .765.767c.42 0 .766-.361.766-.707 0 0 .705-8.683.825-9.044.12-.361.48-.948.6-1.31.12-.36 0-.827.12-1.308.12-.482.556-.783.556-.783.24-.21.406-.542.406-.888v.015zM34.525 66.602c-.48-.12-1.546 1.31-1.786 2.137-.24.828-.466 5.101-.256 6.651 0 .09.09.15.165.15.57-.03 1.306-1.384 1.742-3.235.48-2.016.6-5.598.12-5.703h.015z"/>
            <ellipse cx="34.705" cy="64.465" rx="1.126" ry="1.309"/>
            <ellipse cx="32.453" cy="77.316" rx="1.126" ry="1.309"/>
            <path d="M37.497 66.843a1.18 1.18 0 0 0-1.186-1.189c-.66 0-1.156.497-1.186 1.129 0 0 0 3.28-.48 7.554-.48 4.273-1.186 5.643-1.186 5.763a.77.77 0 0 0 .766.768c.42 0 .765-.362.765-.708 0 0 .706-8.682.826-9.044.12-.36.48-.948.6-1.309.12-.36 0-.827.12-1.309.12-.481.556-.782.556-.782.24-.211.405-.542.405-.888v.015z"/>
            <ellipse cx="35.891" cy="82.779" rx="1.126" ry="1.309"/>
            <path d="M18.148 14.627c-.48-.12-1.546 1.309-1.786 2.136-.24.828-.466 5.102-.255 6.652 0 .09.09.15.165.15.57-.03 1.306-1.384 1.741-3.235.48-2.017.6-5.598.12-5.703h.015z"/>
            <ellipse cx="18.328" cy="12.49" rx="1.126" ry="1.309"/>
            <ellipse cx="16.077" cy="25.326" rx="1.126" ry="1.309"/>
            <path d="M21.12 14.867a1.18 1.18 0 0 0-1.186-1.188c-.66 0-1.155.496-1.186 1.128 0 0 0 3.28-.48 7.554-.48 4.274-1.186 5.643-1.186 5.764a.77.77 0 0 0 .766.767c.42 0 .765-.361.765-.707 0 0 .706-8.683.826-9.044.12-.361.48-.948.6-1.31.12-.36 0-.827.12-1.308.12-.482.556-.783.556-.783.24-.21.405-.542.405-.888v.015z"/>
            <path d="M21.586 20.104c-.48-.12-1.547 1.31-1.787 2.137s-.465 5.101-.255 6.651c0 .09.09.15.165.15.57-.03 1.306-1.384 1.741-3.235.48-2.016.6-5.598.12-5.703h.016z"/>
            <ellipse cx="21.766" cy="17.952" rx="1.126" ry="1.309"/>
            <ellipse cx="19.514" cy="30.803" rx="1.126" ry="1.309"/>
            <path d="M24.558 20.33a1.18 1.18 0 0 0-1.186-1.189c-.66 0-1.156.497-1.186 1.129 0 0 0 3.28-.48 7.554-.48 4.273-1.186 5.643-1.186 5.763a.77.77 0 0 0 .765.767c.42 0 .766-.36.766-.707 0 0 .705-8.683.825-9.044.12-.36.48-.948.6-1.309.121-.361 0-.827.121-1.309.12-.482.555-.782.555-.782.24-.211.406-.542.406-.888v.015zM25.038 25.566c-.48-.12-1.546 1.31-1.786 2.137-.24.828-.466 5.101-.255 6.651 0 .09.09.15.165.15.57-.03 1.306-1.384 1.74-3.234.481-2.017.601-5.598.121-5.704h.015z"/>
            <ellipse cx="25.218" cy="23.43" rx="1.126" ry="1.309"/>
            <ellipse cx="22.952" cy="36.281" rx="1.126" ry="1.309"/>
            <path d="M27.995 25.807a1.18 1.18 0 0 0-1.186-1.189c-.66 0-1.156.497-1.186 1.129 0 0 0 3.28-.48 7.554-.48 4.274-1.186 5.643-1.186 5.763a.77.77 0 0 0 .766.768c.42 0 .765-.361.765-.707 0 0 .706-8.683.826-9.044.12-.361.48-.948.6-1.31.12-.36 0-.827.12-1.309.12-.481.556-.782.556-.782.24-.21.405-.542.405-.888v.015zM28.475 31.044c-.48-.12-1.546 1.309-1.786 2.137-.24.827-.465 5.1-.255 6.65 0 .091.09.151.165.151.57-.03 1.306-1.384 1.741-3.235.48-2.016.6-5.598.12-5.703h.015z"/>
            <ellipse cx="28.656" cy="28.907" rx="1.126" ry="1.309"/>
            <ellipse cx="26.404" cy="41.743" rx="1.126" ry="1.309"/>
            <path d="M31.448 31.285a1.18 1.18 0 0 0-1.186-1.19c-.66 0-1.156.497-1.186 1.13 0 0 0 3.28-.48 7.553-.48 4.274-1.186 5.643-1.186 5.764a.77.77 0 0 0 .765.767c.42 0 .766-.36.766-.707 0 0 .705-8.683.825-9.044.12-.36.48-.948.6-1.309s0-.828.12-1.31c.121-.48.556-.782.556-.782.24-.21.406-.541.406-.887v.015z"/>
            <path d="M31.913 36.506c-.48-.12-1.546 1.31-1.786 2.137-.24.828-.466 5.101-.256 6.651 0 .09.09.15.166.15.57-.03 1.306-1.384 1.74-3.235.481-2.016.601-5.597.121-5.703h.015z"/>
            <ellipse cx="32.093" cy="34.369" rx="1.126" ry="1.309"/>
            <ellipse cx="29.841" cy="47.22" rx="1.126" ry="1.309"/>
            <path d="M34.885 36.747a1.18 1.18 0 0 0-1.186-1.189c-.66 0-1.156.497-1.186 1.129 0 0 0 3.28-.48 7.554-.48 4.273-1.186 5.643-1.186 5.763a.77.77 0 0 0 .766.768c.42 0 .765-.361.765-.708 0 0 .706-8.682.826-9.043.12-.362.48-.948.6-1.31.12-.36 0-.827.12-1.309.12-.481.556-.782.556-.782.24-.21.405-.542.405-.888v.015z"/>
            <path d="M35.35 41.984c-.48-.12-1.546 1.309-1.786 2.137-.24.827-.465 5.1-.255 6.65 0 .091.09.151.165.151.57-.03 1.306-1.384 1.741-3.235.48-2.017.6-5.598.12-5.703h.015z"/>
            <ellipse cx="35.531" cy="39.847" rx="1.126" ry="1.309"/>
            <ellipse cx="33.279" cy="52.683" rx="1.126" ry="1.309"/>
            <path d="M38.323 42.224a1.18 1.18 0 0 0-1.186-1.188c-.66 0-1.156.496-1.186 1.128 0 0 0 3.28-.48 7.554-.48 4.274-1.186 5.643-1.186 5.764a.77.77 0 0 0 .765.767c.42 0 .766-.361.766-.707 0 0 .705-8.683.825-9.044.12-.361.48-.948.6-1.31.12-.36 0-.827.12-1.308.121-.482.556-.783.556-.783.24-.21.406-.541.406-.888v.015z"/>
            <ellipse cx="36.716" cy="58.16" rx="1.126" ry="1.309"/>
            <ellipse cx="23.792" cy="11.647" rx="1.126" ry="1.309"/>
            <path d="M28.836 1.189A1.18 1.18 0 0 0 27.65 0c-.66 0-1.156.497-1.186 1.129 0 0 0 3.28-.48 7.554-.48 4.273-1.186 5.643-1.186 5.763a.77.77 0 0 0 .765.767c.42 0 .766-.36.766-.707 0 0 .705-8.682.826-9.044.12-.36.48-.948.6-1.309.12-.36 0-.827.12-1.309.12-.481.555-.782.555-.782.24-.211.406-.542.406-.888v.015z"/>
            <path d="M29.301 6.425c-.48-.12-1.546 1.31-1.786 2.137-.24.828-.466 5.102-.255 6.651 0 .09.09.15.165.15.57-.03 1.306-1.383 1.741-3.234.48-2.017.6-5.598.12-5.704h.015z"/>
            <ellipse cx="27.23" cy="17.125" rx="1.126" ry="1.309"/>
            <path d="M32.273 6.651a1.18 1.18 0 0 0-1.186-1.189c-.66 0-1.155.497-1.185 1.129 0 0 0 3.28-.48 7.554-.481 4.274-1.187 5.643-1.187 5.763a.77.77 0 0 0 .766.768c.42 0 .765-.361.765-.707 0 0 .706-8.683.826-9.044.12-.361.48-.948.6-1.31.12-.36 0-.827.12-1.309.12-.481.556-.782.556-.782.24-.21.405-.542.405-.888v.015z"/>
            <path d="M32.739 11.888c-.48-.12-1.547 1.309-1.787 2.137-.24.827-.465 5.1-.255 6.65 0 .091.09.151.165.151.57-.03 1.306-1.384 1.741-3.235.48-2.016.6-5.598.12-5.703h.016z"/>
            <ellipse cx="30.667" cy="22.602" rx="1.126" ry="1.309"/>
            <path d="M35.71 12.129a1.18 1.18 0 0 0-1.185-1.19c-.66 0-1.156.497-1.186 1.13 0 0 0 3.28-.48 7.553-.48 4.274-1.186 5.643-1.186 5.764a.77.77 0 0 0 .765.767c.42 0 .766-.36.766-.707 0 0 .705-8.683.825-9.044.12-.36.48-.948.6-1.309.121-.361 0-.828.121-1.31.12-.48.555-.782.555-.782.24-.21.406-.541.406-.887v.015z"/>
            <ellipse cx="34.105" cy="28.064" rx="1.126" ry="1.309"/>
        </g>
        <path d="M37.635 15.358c-.26 0-.492-.132-.665-.414a.283.283 0 0 1 .043-.347c.101-.083.232-.05.304.05.115.165.245.231.419.181.838-1.373 1.921-1.853 3.222-1.39.115.034.173.183.144.315a.219.219 0 0 1-.274.165c-1.142-.397-2.052.017-2.774 1.274a.23.23 0 0 1-.116.1c-.116.033-.217.066-.318.066h.015z" fill="#30242A"/>
        <path d="M37.903 14.361c-.39 0-.669-.153-.85-.474-.056-.097-.014-.223.084-.292.097-.056.237-.028.292.083.07.126.21.28.572.251a.198.198 0 0 1 .223.195c0 .112-.084.223-.196.223h-.125v.014zM48.65 13.827s-.097-.014-.125-.042c-.995-.795-1.934-.864-2.901-.21-.099.07-.225.043-.295-.055-.07-.098-.042-.223.056-.293 1.094-.752 2.215-.683 3.336.181.182-.013.28-.097.336-.278a.222.222 0 0 1 .267-.14.22.22 0 0 1 .14.265c-.126.363-.407.558-.813.572z" fill="#30242A"/>
        <path d="M47.773 13.066a.222.222 0 0 1-.209-.167.208.208 0 0 1 .153-.251c.349-.084.432-.265.46-.404a.23.23 0 0 1 .251-.167.23.23 0 0 1 .167.25c-.083.39-.348.628-.78.74h-.042z" fill="#30242A"/>
        <circle fill="#FF8286" cx="38.323" cy="18.145" r="1.394"/>
        <circle fill="#FFF" cx="40.065" cy="14.313" r="1"/>
        <circle fill="#FFF" cx="46.335" cy="13.616" r="1"/>
        <path d="m59.923 62.48-8.215-17.157-23.1 2.43s-3.132 9.337-4.22 18.476l35.535-3.75z" fill="#C1272D"/>
        <path d="m39.89 36.976-2.26 31.963a1.366 1.366 0 0 0 1.522 1.46l8.971-1.095 13.193-5.54-21.44-26.803.015.015z" fill="#A01823"/>
        <path d="M26.15 74.827s.934.454 1.357-.105c.18-.227.21-.575.18-.923 0 0 .618.317 1.07-.046.754-.605-.075-3.327-1.145-6.005 1.281.817 2.487.136 2.336-.439-.21-.771-8.245-9.635-8.245-9.635s-5.246-6.535-8.351-9.545c-1.07-.09-2.246.151-3.512.832-2.02 1.286-2.85 3.434-1.553 6.792 2.322 5.052 8.758 9.227 8.758 9.227s.317 1.785 2.186 3.646c0 0 1.145 5.748 2.321 5.717.8-.015.422-2.647.317-4.038 0 0 1.462 3.615 2.713 4.674.513.423 1.402.453 1.568-.167v.015z" fill="#F4A48B"/>
        <path d="M21.825 70.41a.3.3 0 0 1-.292-.244c-.14-.677-.293-1.41-.46-2.159a.303.303 0 0 1 .223-.374c.153-.043.32.058.362.23.167.749.335 1.483.474 2.173a.323.323 0 0 1-.237.374h-.07zM25.443 73.895a.338.338 0 0 1-.294-.193c-.632-1.497-1.823-4.299-2.823-6.314a.334.334 0 0 1 .147-.43.316.316 0 0 1 .426.148c1 2.03 2.22 4.847 2.853 6.344a.301.301 0 0 1-.176.415c-.044.015-.088.03-.118.03h-.015zM27.503 72.501c-.142 0-.269-.072-.316-.202-1.155-2.836-2.12-5.025-2.77-6.321-.078-.158 0-.346.175-.418.174-.072.38 0 .459.159.68 1.339 1.614 3.485 2.8 6.364.064.159-.031.346-.205.404-.032 0-.08.014-.127.014h-.016zM26.79 66.214a.432.432 0 0 1-.351-.186 20.153 20.153 0 0 0-1.297-2.071c-.105-.155-.07-.356.123-.464a.409.409 0 0 1 .525.108c.491.68.947 1.407 1.35 2.15.087.17 0 .37-.175.447-.053.016-.106.031-.158.031l-.018-.015z" fill="#30242A"/>
        <path d="M42.071 175.638c.721 0 1.096-.446 1.127-.969.03-.522-.166-1.306-3.35-3.104-3.184-1.797-3.724-4.948-3.724-4.948l-.21-4.425-14.193-.492s-.226 3.365-.06 4.672c.165 1.306.69 4.732 1.862 8.144l4.76.077-.3-3.873c3.575-.26 1.833 2.981 5.302 4.272l8.801.63-.015.016z" fill="#45343C"/>
        <path d="M51.912 26.55c-3.53.537-4.617 5.5-.437 9.763 0 0 3.862 3.175 7.408 4.829l5.22-9.27c-3.44-2.206-9.037-5.798-12.19-5.321zM24.654 30.169c3.356-1.39 7.951 5.767 3.401 9.094 0 0-2.72 4.155-5.593 6.757l-7.83-7.216c2.615-3.105 6.848-8.162 10.007-8.635h.015z" fill="#A01823"/>
        <path d="m39.716 46.292-.09-9.18v-.15s-5.609-10.973-7.514-10.435a37.12 37.12 0 0 0-9.118 4.007l6.239 16.88 10.483-1.092v-.044.014zM39.731 37.48l.09 9.341.209 21.491c7.374.122 14.494-1.2 21.286-4.268L52.6 46.426l.328-20.565c-3.478-.607-6.926-.972-10.196-.592-1.253.304-2.507 7.017-3.015 12.211h.015z" fill="#C1272D"/>
        <path d="M64.372 174.911c.718 0 1.092-.444 1.122-.933.03-.489-.18-1.259-3.367-2.947-3.188-1.689-3.757-4.725-3.757-4.725l-.239-4.265-14.143-.34s-.195 3.243-.015 4.502c.18 1.258.733 4.546 1.93 7.834l4.745.03-.344-3.732c3.562-.297 1.855 2.858 5.313 4.073l8.77.533-.015-.03z" fill="#45343C"/>
        <path d="M41.831 24.868c-.736 0-1.568-.098-2.544-.307-.193-.041-.305-.195-.257-.362.048-.167.224-.265.417-.223 1.056.223 1.936.307 2.688.279a.33.33 0 0 1 .368.292c0 .168-.144.307-.336.321h-.336z" fill="#30242A"/>
        <path d="m81.32 12.601-1.124.268-.045.268a1.136 1.136 0 0 1-.76.862l-2.158.52c-.364.09-.607-.163-.547-.55l.046-.267-1.124.267c-.578.134-1.125.759-1.216 1.383l-.501 3.45a1.13 1.13 0 0 1 .38-.12c.09 0 .182 0 .273.03v.06c.395.267.334 1.16-.304 2.513 0 .03.015.059.03.074a17.44 17.44 0 0 1-1.017 1.784v.045l-.775 5.204c-.092.624.303 1.01.88.877l5.714-1.368c.577-.134 1.124-.758 1.216-1.383l1.914-13.04c.106-.624-.289-1.025-.866-.877h-.015z" fill="#C1272D"/>
        <path d="m77.893 13.953 2.136-.436c.39-.1.676-.386.752-.722l.045-.225-3.43.698-.045.224c-.06.324.18.523.542.46z" fill="#A01823"/>
        <path d="m75.675 15.548-1.81 11.763a.506.506 0 0 0 .608.578l5.088-1.187a.496.496 0 0 0 .385-.426l1.572-11.732c.045-.35-.267-.655-.608-.563l-4.865 1.156a.515.515 0 0 0-.385.426l.015-.015z" fill="#FFF"/>
        <path d="m76.17 16.212-.22 1.673c-.015.149.132.284.294.257l3.428-.58c.103-.014.191-.095.206-.19l.25-1.754c.015-.149-.132-.284-.294-.257l-3.458.662c-.103.013-.176.094-.191.202l-.015-.013zM75.473 20.393l-.22 1.674c-.015.148.132.283.294.256l3.428-.58c.103-.014.191-.095.206-.19l.25-1.754c.015-.148-.132-.283-.294-.256l-3.458.66c-.103.014-.176.095-.191.203l-.015-.013zM74.816 24.096l-.26 2.089a.294.294 0 0 0 .341.319l4.012-.718c.13-.016.21-.127.227-.24l.292-2.2c.033-.19-.146-.35-.34-.318l-4.045.829a.29.29 0 0 0-.227.239z" fill="#A01823"/>
        <path d="M80.851 25.81s2.11-.45 1.835-2.392c0 0 1.33-1.098.593-2.422 0 0 1.271-.753.549-2.077-.044-.09.722-.451.404-1.61-.462-1.7-1.864-2.648-2.384-2.648-1.546 0-.419 2.317-.491 2.287-1.026-.542-2.356-.572-2.717-.075-.621.873.13 1.64.13 1.64s-1.055 0-1.358.873c-.376 1.053.881 1.625.881 1.625s-1.069.406-.635 1.43c.49 1.143 2.268.962 3.38 2l-.173 1.355-.014.015z" fill="#F4A48B"/>
        <path d="M82.573 23.705a.32.32 0 0 1-.282-.148c-.974-1.393-3.33-1.837-4.65-1.986a.324.324 0 0 1-.298-.355c.016-.178.189-.297.377-.282 1.43.163 4.005.667 5.136 2.282.11.149.063.341-.094.445-.063.03-.126.06-.189.06v-.016zM83.292 20.919a.287.287 0 0 1-.228-.098c-1.083-1.156-3.035-1.796-4.104-2.075-.17-.042-.256-.209-.214-.376a.297.297 0 0 1 .385-.209c1.14.293 3.22.975 4.403 2.256.114.126.1.32-.014.432a.294.294 0 0 1-.214.084l-.014-.014zM83.316 18.842c-.08 0-.161-.05-.229-.132-.499-.727-1.2-1.404-2.102-1.982a.386.386 0 0 1-.122-.479c.081-.181.256-.247.391-.148.97.627 1.739 1.354 2.291 2.163a.4.4 0 0 1-.04.496.288.288 0 0 1-.189.082z" fill="#30242A"/>
        <path d="M66.12 43.372c4.528 2.836 9.072-6.06 9.163-6.195 1.877-3.523 3.059-7.27 3.452-8.852l-4.77 1.15c-.575.134-.97-.254-.878-.881l.772-5.225h-.015l.03-.045c.41-.627.788-1.284 1.106-1.97.605-1.314.666-2.18.272-2.433a.617.617 0 0 0-.363-.075 1.12 1.12 0 0 0-.379.12c-.939.447-2.317 2.209-3.665 4.866A1738.258 1738.258 0 0 0 66.06 33.4s-4.453 7.136.076 9.972h-.016z" fill="#F4A48B"/>
        <path d="M65.769 33.476s-.077 0-.116-.03c-.142-.078-.193-.28-.129-.452l.837-2.116c.064-.171.232-.234.373-.156.142.078.193.28.129.451l-.837 2.117c-.051.124-.141.186-.257.186z" fill="#30242A"/>
        <path d="M31.577 48.49c-.901 0-1.787-.057-2.72-.168-.19-.028-.316-.181-.284-.349.031-.167.205-.278.395-.25 1.818.223 3.4.223 5.487 0 .19-.028.363.097.38.264.03.168-.111.32-.301.335-1.091.125-2.04.181-2.957.181v-.014z" fill="#A01823"/>
        <circle fill="#30242A" cx="40.065" cy="15.009" r="1.045"/>
        <circle fill="#30242A" cx="46.335" cy="13.616" r="1.045"/>
        <path d="M19.178 55.08a.343.343 0 0 1-.252-.107s-.868-.863-3.502-3.514a.339.339 0 0 1 0-.47.374.374 0 0 1 .489 0 1094.22 1094.22 0 0 0 3.502 3.515.339.339 0 0 1 0 .47.356.356 0 0 1-.237.09v.015zM40.83 68.305h-1.105a.321.321 0 0 1-.322-.317l-.384-29.998c0-.181.138-.332.322-.332.184.015.338.136.338.317l.383 29.68c1.626.03 9.003.015 13.834-1.888.169-.06.368 0 .43.181.06.182 0 .363-.185.423-4.447 1.753-10.797 1.949-13.327 1.949l.015-.015zM30.283 65.374c-.16 0-.307-.126-.322-.279 0-.167.117-.306.293-.32l7.732-.474c.19-.028.322.111.337.278a.313.313 0 0 1-.293.321l-7.732.474h-.015z" fill="#30242A"/>
    </g>
</svg>
