<svg width="100" height="100" viewBox="0 0 100 100" xmlns="http://www.w3.org/2000/svg" xmlns:xlink="http://www.w3.org/1999/xlink">
    <defs>
        <path d="M0 30.217c0 11.917 6.868 22.219 16.843 27.138l.002-.003c.64.339 1.367.533 2.14.533 2.536 0 4.592-2.066 4.592-4.614a4.61 4.61 0 0 0-2.607-4.154l.005-.01a20.992 20.992 0 0 1-11.783-18.89c0-11.588 9.35-20.983 20.886-20.983 11.535 0 20.886 9.395 20.886 20.983a20.98 20.98 0 0 1-8.57 16.942c-4.022 2.91-7.893-.758-7.893-4.782V30.335h-.006V27.21c0-.917-.74-1.66-1.652-1.66h-5.928c-.913 0-1.653.743-1.653 1.66v17.322c.01 3.52 3.438 10.736 10.009 11.65 8.715 1.144 12.901-1.806 14.039-2.736l.03-.025c.038-.032.074-.061.104-.088l-.002-.002c6.548-5.543 10.714-13.838 10.714-23.115C60.156 13.53 46.69 0 30.078 0 13.466 0 0 13.529 0 30.217" id="tswz3o79ka"/>
    </defs>
    <g fill="none" fill-rule="evenodd">
        <g fill-rule="nonzero">
            <path d="M79.688 43.499c0-16.689-13.467-30.218-30.078-30.218-16.612 0-30.079 13.53-30.079 30.218 0 11.917 6.869 22.218 16.843 27.138l.002-.004c.64.339 1.367.533 2.14.533 2.537 0 4.592-2.066 4.592-4.613a4.61 4.61 0 0 0-2.606-4.155l.005-.01a20.991 20.991 0 0 1-11.784-18.89c0-11.587 9.352-20.982 20.887-20.982S70.495 31.911 70.495 43.5a20.98 20.98 0 0 1-8.57 16.942c-4.022 2.91-7.892-.758-7.892-4.783V43.616h-.006v-3.123c0-.917-.74-1.66-1.652-1.66h-5.929c-.912 0-1.652.743-1.652 1.66v17.322c.009 3.52 3.438 10.736 10.009 11.648 8.715 1.146 12.9-1.804 14.038-2.735l.001.001.03-.026.104-.087-.003-.002c6.549-5.543 10.715-13.838 10.715-23.115" fill="#D8232A"/>
            <path d="M49.403 36.815c2.554 0 4.624-2.08 4.624-4.645 0-2.566-2.07-4.646-4.624-4.646-2.553 0-4.623 2.08-4.623 4.646 0 2.565 2.07 4.645 4.623 4.645" fill="#AB2430"/>
        </g>
        <g transform="translate(19.532 13.281)">
            <mask id="popn14o0rb" fill="#fff">
                <use xlink:href="#tswz3o79ka"/>
            </mask>
            <path d="M34.495 22.71c0 8.56.006 17.839.006 19.667 0 2.625 3.453 15.845 17.078 10.594-7.839 12.376-22.21 4.505-24.45 1.221-2.24-3.19-5.133-21.057-3.36-28.735 2.893-1.219 10.726-2.746 10.726-2.746" fill="#AB2430" fill-rule="nonzero" mask="url(#popn14o0rb)"/>
        </g>
        <g fill="#D8232A" fill-rule="nonzero">
            <path d="M25.088 87.5h2.487V73.583h-2.487zM42.208 79.17a5.032 5.032 0 0 0-.422-1.335 7.09 7.09 0 0 0-1.482-2.208 10.008 10.008 0 0 0-1.014-.838 5.472 5.472 0 0 0-1.196-.652 6.896 6.896 0 0 0-2.665-.554c-.903 0-1.808.186-2.677.549-.433.17-.84.39-1.21.657-.195.14-.386.29-.574.448l.015-1.654h-2.492V87.5h2.487v-7.055a5.1 5.1 0 0 1 .112-.842c.059-.269.142-.535.245-.788a4.282 4.282 0 0 1 .966-1.443 4.225 4.225 0 0 1 1.426-.96c.493-.22 1.066-.331 1.702-.331.59 0 1.16.113 1.69.335a4.406 4.406 0 0 1 1.963 1.63c.16.246.302.508.417.77.237.568.358 1.148.358 1.725V87.5h2.486v-7.008a10.693 10.693 0 0 0-.135-1.321M43.173 87.5h2.487V73.583h-2.487zM48.858 78.841a4.53 4.53 0 0 1 .412-.773c.155-.23.34-.453.548-.662.429-.432.907-.755 1.429-.965a4.398 4.398 0 0 1 1.717-.36c.575 0 1.153.121 1.717.36.285.12.544.26.77.414.23.156.452.342.66.55l.417.42 1.805-1.765-.45-.43a7.925 7.925 0 0 0-2.21-1.51 7.055 7.055 0 0 0-2.709-.537c-.952 0-1.857.178-2.688.53a6.946 6.946 0 0 0-2.215 1.502 6.974 6.974 0 0 0-1.495 2.225 6.933 6.933 0 0 0-.528 2.701v1.262H57.24a4.346 4.346 0 0 1-.174.465 4.227 4.227 0 0 1-.955 1.416c-.21.21-.432.394-.66.548a4.438 4.438 0 0 1-.77.411 4.415 4.415 0 0 1-1.718.358 4.416 4.416 0 0 1-1.727-.363 4.239 4.239 0 0 1-1.42-.961l-.422-.426-1.755 1.765.42.425a7.006 7.006 0 0 0 2.212 1.517c.831.36 1.737.542 2.692.542.934 0 1.844-.177 2.722-.533a7.811 7.811 0 0 0 2.207-1.492c.314-.315.596-.663.837-1.035.237-.364.449-.76.633-1.183a6.89 6.89 0 0 0 .528-2.692v-1.26H48.695c.047-.162.101-.317.163-.464M71.643 80.694c0 .276-.029.549-.086.81a4.86 4.86 0 0 1-.239.77 4.923 4.923 0 0 1-.983 1.445c-.185.2-.395.378-.623.529-.243.16-.504.302-.766.42a3.953 3.953 0 0 1-.849.254 5.024 5.024 0 0 1-1.788 0 3.925 3.925 0 0 1-.83-.247 4.85 4.85 0 0 1-1.422-.973A4.85 4.85 0 0 1 63.1 82.3a4.788 4.788 0 0 1-.008-3.498c.121-.273.263-.534.422-.779.146-.223.318-.42.51-.585l.026-.023.023-.025a4.221 4.221 0 0 1 1.381-.97 4.612 4.612 0 0 1 1.75-.338 4.74 4.74 0 0 1 1.731.329c.27.121.527.266.765.43.234.16.447.346.635.55l.023.025.026.022c.192.165.363.362.51.586.157.241.3.503.412.755.224.572.337 1.165.337 1.763v.153zm1.945-2.869a7.027 7.027 0 0 0-1.48-2.21 6.978 6.978 0 0 0-2.2-1.488 6.792 6.792 0 0 0-2.704-.544c-.955 0-1.865.183-2.704.544-.835.36-1.575.86-2.2 1.488a7.013 7.013 0 0 0-1.48 2.21 6.878 6.878 0 0 0-.543 2.716c0 .96.183 1.874.542 2.716a7.001 7.001 0 0 0 1.481 2.21 6.971 6.971 0 0 0 2.2 1.488 6.79 6.79 0 0 0 2.704.545c1.14 0 2.202-.26 3.155-.77.465-.25.894-.541 1.284-.872V87.5h2.487V80.54c0-.959-.182-1.872-.542-2.716z"/>
        </g>
    </g>
</svg>
